<?xml version="1.0" encoding="utf-8"?>
<!-- Generator: Adobe Illustrator 26.2.1, SVG Export Plug-In . SVG Version: 6.00 Build 0)  -->
<svg version="1.1"
	 id="svg173318" xmlns:cc="http://creativecommons.org/ns#" xmlns:dc="http://purl.org/dc/elements/1.1/" xmlns:rdf="http://www.w3.org/1999/02/22-rdf-syntax-ns#" xmlns:svg="http://www.w3.org/2000/svg"
	 xmlns="http://www.w3.org/2000/svg" xmlns:xlink="http://www.w3.org/1999/xlink" x="0px" y="0px" viewBox="0 0 519.2 64"
	 style="enable-background:new 0 0 519.2 64;" xml:space="preserve">
<style type="text/css">
	.st0{clip-path:url(#SVGID_00000078003879839739183100000000297047788471252412_);}
	.st1{fill:url(#SVGID_00000026876252379858876710000014282749178491222433_);}
	.st2{fill:#8D5EF0;}
	.st3{fill:url(#SVGID_00000105412465756877069530000009059592781282859396_);}
	.st4{fill:url(#SVGID_00000152247938116236317030000014568171143865464737_);}
	.st5{fill:url(#SVGID_00000114767284800709288820000000423586678193820548_);}
	.st6{fill:url(#SVGID_00000161609582956322452080000014661844080410262945_);}
	.st7{fill:url(#SVGID_00000182510689712886536530000003434427423401843612_);}
	.st8{fill:url(#SVGID_00000137824457145216698620000001346759487319950496_);}
	.st9{fill:url(#SVGID_00000063615376637255542340000014109083278096582815_);}
	.st10{fill:url(#SVGID_00000084530716186980685310000008991533082813219512_);}
	.st11{fill:url(#SVGID_00000064328517680394853930000007443215545125813947_);}
	.st12{fill:url(#SVGID_00000060012736845560240270000003680298673147632281_);}
	.st13{fill:url(#SVGID_00000103248685011428733220000002822357389710265255_);}
	.st14{fill:url(#SVGID_00000083805395717465329950000002339365528424589235_);}
	.st15{fill:url(#SVGID_00000182517871263623357450000004492189177604167869_);}
	.st16{fill:url(#SVGID_00000171689773466100618100000004588001221035915705_);}
	.st17{fill:url(#SVGID_00000045585840331541612160000006649007472721217972_);}
	.st18{fill:url(#SVGID_00000009573129788560311600000010996953163468459966_);}
	.st19{fill:url(#SVGID_00000039092699566416096960000016706285132672725945_);}
	.st20{fill:url(#SVGID_00000022550669298464794770000017053098666809051296_);}
	.st21{fill:url(#SVGID_00000065755996805964553310000005688762769143383960_);}
	.st22{fill:url(#SVGID_00000054965127671383850030000004821619220874407582_);}
	.st23{fill:url(#SVGID_00000127731891849876686040000013099438961701305532_);}
	.st24{fill:url(#SVGID_00000009565068150177768120000018421723536958218675_);}
	.st25{fill:url(#SVGID_00000135674194608137602780000007469707827417756315_);}
	.st26{fill:url(#SVGID_00000069368120700051235990000012896736363249984439_);}
	.st27{fill:url(#SVGID_00000014595916606508199260000003110327156986082969_);}
	.st28{fill:url(#SVGID_00000027585410392168123630000016657048811171704452_);}
	.st29{fill:url(#SVGID_00000123434969323810961090000009064607302267677361_);}
	.st30{fill:url(#SVGID_00000114793425245457494270000001639808999883049640_);}
	.st31{fill:url(#SVGID_00000074427350713047036450000002914677141344656805_);}
	.st32{fill:url(#SVGID_00000093161714826638653190000013244038530947906747_);}
	.st33{clip-path:url(#SVGID_00000084514109970334198420000016372397601416580014_);}
</style>
<g id="logo-group">
	<g id="logo-center" transform="translate(-1.1368683772161603e-13 0)">
		<g>
			<defs>
				<polygon id="SVGID_1_" points="-251.4,-350.5 -250.4,-350.5 -251.4,-349.5 				"/>
			</defs>
			<defs>
				<polygon id="SVGID_00000108270066382551308240000006296451810754795959_" points="-253.4,-352.5 -254.4,-352.5 -253.4,-353.5 
									"/>
			</defs>
			<clipPath id="SVGID_00000145752184420720357000000001713835688735045799_">
				<use xlink:href="#SVGID_1_"  style="overflow:visible;"/>
			</clipPath>
			
				<clipPath id="SVGID_00000017494544834752300010000013787847724076754818_" style="clip-path:url(#SVGID_00000145752184420720357000000001713835688735045799_);">
				<use xlink:href="#SVGID_00000108270066382551308240000006296451810754795959_"  style="overflow:visible;"/>
			</clipPath>
		</g>
		<g id="title" transform="translate(0 0)">
			
				<g id="path173329" transform="translate(0 314.26300000000003) translate(252.3903125000001 37.202) scale(1.25) translate(-314.82069 51.192)">
				
					<linearGradient id="SVGID_00000037668325157018491650000010137841341836522932_" gradientUnits="userSpaceOnUse" x1="-67.4046" y1="143.0254" x2="-73.8895" y2="163.2909" gradientTransform="matrix(1.25 0 0 1.25 240.0635 -485.7094)">
					<stop  offset="0" style="stop-color:#000000;stop-opacity:0.4"/>
					<stop  offset="0.276" style="stop-color:#0F0D0D;stop-opacity:0.2896"/>
					<stop  offset="0.6748" style="stop-color:#1E1A1B;stop-opacity:0.1301"/>
					<stop  offset="1" style="stop-color:#231F20;stop-opacity:0"/>
				</linearGradient>
				<path style="fill:url(#SVGID_00000037668325157018491650000010137841341836522932_);" d="M158.6-306.3h-5.4
					c0,1.9-0.4,3.6-1.2,5.2c-2.1,4.5-6.8,7.6-12.3,7.6c-0.1,0-0.2,0-0.3,0v13.3c0.1,0,0.2,0,0.3,0c12.9,0,23.8-9,26.2-20.8v0
					L158.6-306.3z"/>
				<path class="st2" d="M158.6-306.3l-7.3-5.2h-9.2v10.4h9.9c-2.1,4.5-6.8,7.6-12.3,7.6c-0.1,0-0.2,0-0.3,0
					c-7.3-0.1-13.2-5.8-13.2-12.8c0-7,6.1-12.8,13.5-12.8c3.6,0,6.9,1.3,9.3,3.5l9.4-9.4c-4.8-4.6-11.4-7.4-18.7-7.4
					c-14.8,0-26.8,11.7-26.8,26c0,14.3,11.9,25.9,26.5,26c0.1,0,0.2,0,0.3,0c12.9,0,23.8-9,26.2-20.8l0,0v0L158.6-306.3z"/>
				
					<linearGradient id="SVGID_00000041256737825197857640000015757996985509855398_" gradientUnits="userSpaceOnUse" x1="-78.3865" y1="143.5141" x2="-54.5492" y2="143.5141" gradientTransform="matrix(1.25 0 0 1.25 240.0635 -485.7094)">
					<stop  offset="0.3033" style="stop-color:#FFFFFF;stop-opacity:0"/>
					<stop  offset="1" style="stop-color:#FFFFFF;stop-opacity:0.5"/>
				</linearGradient>
				<polygon style="fill:url(#SVGID_00000041256737825197857640000015757996985509855398_);" points="165.9,-301.1 165.9,-301.1 
					142.1,-301.1 142.1,-311.5 151.3,-311.5 158.6,-306.3 				"/>
				
					<linearGradient id="SVGID_00000032622859377688458910000003600448955256729519_" gradientUnits="userSpaceOnUse" x1="-78.3865" y1="143.5141" x2="-54.5492" y2="143.5141" gradientTransform="matrix(1.25 0 0 1.25 240.0635 -485.7094)">
					<stop  offset="0" style="stop-color:#000000;stop-opacity:0.4"/>
					<stop  offset="0.2169" style="stop-color:#0F0E0E;stop-opacity:0.25"/>
					<stop  offset="0.5104" style="stop-color:#1E1B1B;stop-opacity:0.1"/>
					<stop  offset="0.7568" style="stop-color:#231F20;stop-opacity:0"/>
				</linearGradient>
				<polygon style="fill:url(#SVGID_00000032622859377688458910000003600448955256729519_);" points="165.9,-301.1 165.9,-301.1 
					142.1,-301.1 142.1,-311.5 151.3,-311.5 158.6,-306.3 				"/>
				
					<linearGradient id="SVGID_00000039851129618711934010000017693408503347328953_" gradientUnits="userSpaceOnUse" x1="-83.5468" y1="164.3465" x2="-83.5468" y2="112.2588" gradientTransform="matrix(1.25 0 0 1.25 240.0635 -485.7094)">
					<stop  offset="0.1751" style="stop-color:#FFFFFF;stop-opacity:0"/>
					<stop  offset="1" style="stop-color:#FFFFFF;stop-opacity:0.5"/>
				</linearGradient>
				<path style="fill:url(#SVGID_00000039851129618711934010000017693408503347328953_);" d="M126.2-306.3c0-7,6.1-12.8,13.5-12.8
					c3.6,0,6.9,1.3,9.3,3.5l9.4-9.4c-4.8-4.6-11.4-7.4-18.7-7.4c-14.8,0-26.8,11.7-26.8,26c0,14.3,11.9,25.9,26.5,26v-13.3
					C132.1-293.7,126.2-299.4,126.2-306.3z"/>
			</g>
			
				<g id="path173331" transform="translate(0 314.26300000000003) translate(326.82546250000007 38.192) scale(1.25) translate(-371.36881 50.4)">
				<polygon class="st2" points="210.5,-318.3 210.5,-331.6 184.1,-331.6 184.1,-331.6 169.5,-318.3 169.5,-294.2 184.1,-281.1 
					184.1,-281.1 184.1,-281.1 184.1,-281.1 184.1,-281.1 210.5,-281.1 210.5,-294.4 184.1,-294.4 184.1,-300.4 208.1,-300.4 
					208.1,-313.7 184.1,-313.7 184.1,-318.3 				"/>
				
					<linearGradient id="SVGID_00000104682681763569437720000012512054591949173633_" gradientUnits="userSpaceOnUse" x1="-88.2546" y1="-52.1852" x2="-61.8131" y2="-52.1852" gradientTransform="matrix(1.25 0 0 -1.25 294.3807 -371.5851)">
					<stop  offset="0" style="stop-color:#000000;stop-opacity:0.4"/>
					<stop  offset="0.276" style="stop-color:#0F0D0D;stop-opacity:0.2896"/>
					<stop  offset="0.6748" style="stop-color:#1E1A1B;stop-opacity:0.1301"/>
					<stop  offset="1" style="stop-color:#231F20;stop-opacity:0"/>
				</linearGradient>
				<path style="fill:url(#SVGID_00000104682681763569437720000012512054591949173633_);" d="M184.1-300.4l0-13.3l24,0v13.3
					L184.1-300.4z M210.5-318.3v-13.3l-26.4,0v13.3L210.5-318.3z M210.5-281.1v-13.3l-26.4,0v13.3L210.5-281.1z"/>
				
					<linearGradient id="SVGID_00000008124336859131613410000006526623130438018207_" gradientUnits="userSpaceOnUse" x1="-94.0945" y1="-72.3598" x2="-94.0945" y2="-21.9234" gradientTransform="matrix(1.25 0 0 -1.25 294.3807 -371.5851)">
					<stop  offset="0" style="stop-color:#000000;stop-opacity:0.3"/>
					<stop  offset="0.2141" style="stop-color:#0F0D0D;stop-opacity:0.2173"/>
					<stop  offset="0.524" style="stop-color:#1E1A1B;stop-opacity:9.755000e-02"/>
					<stop  offset="0.7765" style="stop-color:#231F20;stop-opacity:0"/>
				</linearGradient>
				<polygon style="fill:url(#SVGID_00000008124336859131613410000006526623130438018207_);" points="169.5,-294.2 184.1,-281.1 
					184.1,-331.6 169.5,-318.3 				"/>
				
					<linearGradient id="SVGID_00000166671774109587978210000000018901139832113571_" gradientUnits="userSpaceOnUse" x1="-94.0945" y1="-72.3598" x2="-94.0945" y2="-21.9234" gradientTransform="matrix(1.25 0 0 -1.25 294.3807 -371.5851)">
					<stop  offset="0.2336" style="stop-color:#FFFFFF;stop-opacity:0"/>
					<stop  offset="0.9894" style="stop-color:#FFFFFF;stop-opacity:0.4931"/>
					<stop  offset="1" style="stop-color:#FFFFFF;stop-opacity:0.5"/>
				</linearGradient>
				<polygon style="fill:url(#SVGID_00000166671774109587978210000000018901139832113571_);" points="169.5,-294.2 184.1,-281.1 
					184.1,-331.6 169.5,-318.3 				"/>
			</g>
			
				<g id="path173333" transform="translate(0 314.26300000000003) translate(388.1079625000001 38.192) scale(1.25) translate(-417.39481 50.4)">
				<polygon class="st2" points="261.1,-300.4 246.5,-313.7 230.1,-313.7 230.1,-318.3 259.1,-318.3 259.1,-331.6 230.1,-331.6 
					230.1,-331.6 219.6,-322 215.5,-318.3 215.5,-318.3 215.5,-313.7 215.5,-313.7 230.1,-300.4 246.5,-300.4 246.5,-294.4 
					217.5,-294.4 217.5,-281.2 246.5,-281.2 246.5,-281.2 257,-290.7 261.1,-294.4 261.1,-294.4 261.1,-300.4 261.1,-300.4 				"/>
				
					<linearGradient id="SVGID_00000055686773561220596430000001160763231380526739_" gradientUnits="userSpaceOnUse" x1="-103.1668" y1="-67.0501" x2="-76.7885" y2="-67.0501" gradientTransform="matrix(1.25 0 0 -1.25 346.447 -371.6024)">
					<stop  offset="0" style="stop-color:#FFFFFF;stop-opacity:0.5"/>
					<stop  offset="1.383000e-02" style="stop-color:#FFFFFF;stop-opacity:0.4931"/>
					<stop  offset="1" style="stop-color:#FFFFFF;stop-opacity:0"/>
				</linearGradient>
				<polygon style="fill:url(#SVGID_00000055686773561220596430000001160763231380526739_);" points="246.5,-281.2 261.1,-294.4 
					217.5,-294.4 217.5,-281.2 				"/>
				
					<linearGradient id="SVGID_00000098909048693105117400000007232733392199942534_" gradientUnits="userSpaceOnUse" x1="-583.2932" y1="141.9688" x2="-556.9149" y2="141.9688" gradientTransform="matrix(-1.25 0 0 1.25 -470.006 -502.396)">
					<stop  offset="0" style="stop-color:#FFFFFF;stop-opacity:0"/>
					<stop  offset="0.9862" style="stop-color:#FFFFFF;stop-opacity:0.4931"/>
					<stop  offset="1" style="stop-color:#FFFFFF;stop-opacity:0.5"/>
				</linearGradient>
				<polygon style="fill:url(#SVGID_00000098909048693105117400000007232733392199942534_);" points="230.1,-331.6 215.5,-318.3 
					259.1,-318.3 259.1,-331.6 				"/>
				
					<linearGradient id="SVGID_00000126283158554902254520000011105459462682863525_" gradientUnits="userSpaceOnUse" x1="-74.1093" y1="-54.2829" x2="-74.1093" y2="-68.0105" gradientTransform="matrix(1.25 0 0 -1.25 346.447 -371.6024)">
					<stop  offset="0" style="stop-color:#000000;stop-opacity:0.4"/>
					<stop  offset="0.276" style="stop-color:#0F0D0D;stop-opacity:0.2896"/>
					<stop  offset="0.6748" style="stop-color:#1E1A1B;stop-opacity:0.1301"/>
					<stop  offset="1" style="stop-color:#231F20;stop-opacity:0"/>
				</linearGradient>
				<polygon style="fill:url(#SVGID_00000126283158554902254520000011105459462682863525_);" points="261.1,-294.4 246.5,-281.2 
					246.5,-300.4 261.1,-300.4 				"/>
				
					<linearGradient id="SVGID_00000181072581939957969050000016976964463007858105_" gradientUnits="userSpaceOnUse" x1="-98.5428" y1="-35.9795" x2="-99.055" y2="-54.4184" gradientTransform="matrix(1.25 0 0 -1.25 346.447 -371.6024)">
					<stop  offset="0" style="stop-color:#000000;stop-opacity:0.4"/>
					<stop  offset="0.276" style="stop-color:#0F0D0D;stop-opacity:0.2896"/>
					<stop  offset="0.6748" style="stop-color:#1E1A1B;stop-opacity:0.1301"/>
					<stop  offset="1" style="stop-color:#231F20;stop-opacity:0"/>
				</linearGradient>
				<polygon style="fill:url(#SVGID_00000181072581939957969050000016976964463007858105_);" points="215.5,-318.3 215.5,-313.7 
					230.1,-300.4 230.1,-318.3 				"/>
				
					<linearGradient id="SVGID_00000056423340660917451460000000710762599964305817_" gradientUnits="userSpaceOnUse" x1="-97.5146" y1="156.2829" x2="-69.9269" y2="156.2829" gradientTransform="matrix(1.25 0 0 1.25 346.4468 -502.396)">
					<stop  offset="0" style="stop-color:#000000;stop-opacity:0.4"/>
					<stop  offset="0.276" style="stop-color:#0F0D0D;stop-opacity:0.2896"/>
					<stop  offset="0.6748" style="stop-color:#1E1A1B;stop-opacity:0.1301"/>
					<stop  offset="1" style="stop-color:#231F20;stop-opacity:0"/>
				</linearGradient>
				<polygon style="fill:url(#SVGID_00000056423340660917451460000000710762599964305817_);" points="246.5,-313.7 230.1,-313.7 
					230.1,-300.4 261.1,-300.4 				"/>
				
					<linearGradient id="SVGID_00000059292138088833347830000018434891442612150439_" gradientUnits="userSpaceOnUse" x1="-97.5146" y1="156.2829" x2="-69.9269" y2="156.2829" gradientTransform="matrix(1.25 0 0 1.25 346.4468 -502.396)">
					<stop  offset="0" style="stop-color:#FFFFFF;stop-opacity:0"/>
					<stop  offset="0.9862" style="stop-color:#FFFFFF;stop-opacity:0.4931"/>
					<stop  offset="1" style="stop-color:#FFFFFF;stop-opacity:0.5"/>
				</linearGradient>
				<polygon style="fill:url(#SVGID_00000059292138088833347830000018434891442612150439_);" points="246.5,-313.7 230.1,-313.7 
					230.1,-300.4 261.1,-300.4 				"/>
				
					<linearGradient id="SVGID_00000075152763515445399770000011083989784991007930_" gradientUnits="userSpaceOnUse" x1="-70.8599" y1="-67.0501" x2="-101.0354" y2="-67.0501" gradientTransform="matrix(1.25 0 0 -1.25 346.447 -371.6024)">
					<stop  offset="0" style="stop-color:#000000;stop-opacity:0.4"/>
					<stop  offset="0.276" style="stop-color:#0F0D0D;stop-opacity:0.2896"/>
					<stop  offset="0.6748" style="stop-color:#1E1A1B;stop-opacity:0.1301"/>
					<stop  offset="1" style="stop-color:#231F20;stop-opacity:0"/>
				</linearGradient>
				
					<rect x="217.5" y="-294.4" style="fill:url(#SVGID_00000075152763515445399770000011083989784991007930_);" width="29" height="13.3"/>
			</g>
			
				<g id="path173335" transform="translate(0 314.26300000000003) translate(452.57140000000004 38.192) scale(1.25) translate(-465.96556 50.4)">
				<polygon class="st2" points="307.6,-331.6 278.5,-331.6 278.5,-331.6 264.1,-331.6 264.1,-318.3 278.5,-318.3 278.5,-318.3 
					278.5,-318.3 278.5,-281.1 293.1,-281.1 293.1,-318.3 307.6,-318.3 				"/>
				
					<linearGradient id="SVGID_00000017479198955769373940000004987885569852479657_" gradientUnits="userSpaceOnUse" x1="-90.5121" y1="-37.3192" x2="-110.2419" y2="-37.3192" gradientTransform="matrix(1.25 0 0 -1.25 397.7371 -371.5848)">
					<stop  offset="0.2556" style="stop-color:#000000;stop-opacity:0.4"/>
					<stop  offset="0.461" style="stop-color:#0F0D0D;stop-opacity:0.2896"/>
					<stop  offset="0.758" style="stop-color:#1E1A1B;stop-opacity:0.1301"/>
					<stop  offset="1" style="stop-color:#231F20;stop-opacity:0"/>
				</linearGradient>
				<polygon style="fill:url(#SVGID_00000017479198955769373940000004987885569852479657_);" points="264.1,-318.3 264.1,-331.6 
					278.5,-331.6 278.5,-318.3 				"/>
				
					<linearGradient id="SVGID_00000054252757611794700460000009177269260901421975_" gradientUnits="userSpaceOnUse" x1="-89.5176" y1="-33.8255" x2="-89.5176" y2="-82.0171" gradientTransform="matrix(1.25 0 0 -1.25 397.7371 -371.5848)">
					<stop  offset="0" style="stop-color:#FFFFFF;stop-opacity:0.5"/>
					<stop  offset="1.383000e-02" style="stop-color:#FFFFFF;stop-opacity:0.4931"/>
					<stop  offset="1" style="stop-color:#FFFFFF;stop-opacity:0"/>
				</linearGradient>
				<polygon style="fill:url(#SVGID_00000054252757611794700460000009177269260901421975_);" points="278.5,-281.1 293.1,-281.1 
					293.1,-318.3 278.5,-331.6 				"/>
				
					<linearGradient id="SVGID_00000099648455428550504750000017951962934479573679_" gradientUnits="userSpaceOnUse" x1="-90.9397" y1="-43.6057" x2="-80.8839" y2="-34.8428" gradientTransform="matrix(1.25 0 0 -1.25 397.7371 -371.5848)">
					<stop  offset="0.2556" style="stop-color:#000000;stop-opacity:0.4"/>
					<stop  offset="0.461" style="stop-color:#0F0D0D;stop-opacity:0.2896"/>
					<stop  offset="0.758" style="stop-color:#1E1A1B;stop-opacity:0.1301"/>
					<stop  offset="1" style="stop-color:#231F20;stop-opacity:0"/>
				</linearGradient>
				<polygon style="fill:url(#SVGID_00000099648455428550504750000017951962934479573679_);" points="307.6,-331.6 278.5,-331.6 
					293.1,-318.3 307.6,-318.3 				"/>
			</g>
			
				<g id="path173337" transform="translate(0 314.26300000000003) translate(516.3429625 38.192) scale(1.25) translate(-513.98281 50.4)">
				<polygon class="st2" points="357.7,-331.6 343.1,-331.6 343.1,-294.4 326.7,-294.4 326.7,-331.6 312.1,-331.6 312.1,-294.4 
					326.6,-281.2 326.7,-281.1 326.7,-281.1 326.7,-281.1 343.1,-281.1 343.1,-281.1 353.6,-290.7 357.7,-294.4 357.7,-294.4 
					357.7,-294.4 				"/>
				
					<linearGradient id="SVGID_00000085949660848003437840000012404319431888609946_" gradientUnits="userSpaceOnUse" x1="-104.9267" y1="-70.305" x2="-104.9267" y2="-24.0379" gradientTransform="matrix(1.25 0 0 -1.25 450.5349 -371.5853)">
					<stop  offset="0" style="stop-color:#000000;stop-opacity:0.4"/>
					<stop  offset="0.1974" style="stop-color:#0F0D0D;stop-opacity:0.2896"/>
					<stop  offset="0.4829" style="stop-color:#1E1A1B;stop-opacity:0.1301"/>
					<stop  offset="0.7155" style="stop-color:#231F20;stop-opacity:0"/>
				</linearGradient>
				<polygon style="fill:url(#SVGID_00000085949660848003437840000012404319431888609946_);" points="312.1,-294.4 326.7,-281.1 
					326.7,-331.6 312.1,-331.6 				"/>
				
					<linearGradient id="SVGID_00000142899144179516467120000002654385158487057818_" gradientUnits="userSpaceOnUse" x1="-104.9267" y1="-70.305" x2="-104.9267" y2="-24.0379" gradientTransform="matrix(1.25 0 0 -1.25 450.5349 -371.5853)">
					<stop  offset="0.2055" style="stop-color:#FFFFFF;stop-opacity:0"/>
					<stop  offset="0.989" style="stop-color:#FFFFFF;stop-opacity:0.4931"/>
					<stop  offset="1" style="stop-color:#FFFFFF;stop-opacity:0.5"/>
				</linearGradient>
				<polygon style="fill:url(#SVGID_00000142899144179516467120000002654385158487057818_);" points="312.1,-294.4 326.7,-281.1 
					326.7,-331.6 312.1,-331.6 				"/>
				
					<linearGradient id="SVGID_00000158008180032662940420000016017159136212421520_" gradientUnits="userSpaceOnUse" x1="-99.0876" y1="-67.0501" x2="-80.328" y2="-67.0501" gradientTransform="matrix(1.25 0 0 -1.25 450.5349 -371.5853)">
					<stop  offset="0" style="stop-color:#000000;stop-opacity:0.4"/>
					<stop  offset="0.276" style="stop-color:#0F0D0D;stop-opacity:0.2896"/>
					<stop  offset="0.6748" style="stop-color:#1E1A1B;stop-opacity:0.1301"/>
					<stop  offset="1" style="stop-color:#231F20;stop-opacity:0"/>
				</linearGradient>
				<polygon style="fill:url(#SVGID_00000158008180032662940420000016017159136212421520_);" points="343.1,-281.1 357.7,-294.4 
					326.7,-294.4 326.7,-281.1 				"/>
				
					<linearGradient id="SVGID_00000167382551949529100100000001764902068820402623_" gradientUnits="userSpaceOnUse" x1="-99.0865" y1="-67.0501" x2="-80.3277" y2="-67.0501" gradientTransform="matrix(1.25 0 0 -1.25 450.5349 -371.5853)">
					<stop  offset="0.1818" style="stop-color:#FFFFFF;stop-opacity:0"/>
					<stop  offset="0.9887" style="stop-color:#FFFFFF;stop-opacity:0.4931"/>
					<stop  offset="1" style="stop-color:#FFFFFF;stop-opacity:0.5"/>
				</linearGradient>
				<polygon style="fill:url(#SVGID_00000167382551949529100100000001764902068820402623_);" points="343.1,-281.1 357.7,-294.4 
					326.7,-294.4 326.7,-281.1 				"/>
				
					<linearGradient id="SVGID_00000158733266294351497230000015020652988624212635_" gradientUnits="userSpaceOnUse" x1="-80.1094" y1="-65.8798" x2="-80.1094" y2="-43.7421" gradientTransform="matrix(1.25 0 0 -1.25 450.5349 -371.5853)">
					<stop  offset="0" style="stop-color:#000000;stop-opacity:0.4"/>
					<stop  offset="0.276" style="stop-color:#0F0D0D;stop-opacity:0.2896"/>
					<stop  offset="0.6748" style="stop-color:#1E1A1B;stop-opacity:0.1301"/>
					<stop  offset="1" style="stop-color:#231F20;stop-opacity:0"/>
				</linearGradient>
				
					<rect x="343.1" y="-331.6" style="fill:url(#SVGID_00000158733266294351497230000015020652988624212635_);" width="14.6" height="37.2"/>
			</g>
			
				<g id="path173339" transform="translate(0 314.26300000000003) translate(582.5909375 38.192) scale(1.25) translate(-563.98119 50.4)">
				<path class="st2" d="M405.4-312.8L405.4-312.8c0-10.4-8.4-18.8-18.8-18.8l-24.6,0v13.3l24.6,0c3,0,5.5,2.5,5.5,5.5v0
					c0,3-2.5,5.5-5.5,5.5v0l-8,0l-5.3,13.3l10.7,12.9h18.6l-12.2-13.3C399-296.2,405.4-303.8,405.4-312.8z"/>
				
					<linearGradient id="SVGID_00000050629926946476996360000016424758953920836266_" gradientUnits="userSpaceOnUse" x1="-101.141" y1="-56.0945" x2="-85.2032" y2="-75.7102" gradientTransform="matrix(1.25 0 0 -1.25 503.1463 -371.5854)">
					<stop  offset="0" style="stop-color:#FFFFFF;stop-opacity:0.5"/>
					<stop  offset="1.383000e-02" style="stop-color:#FFFFFF;stop-opacity:0.4931"/>
					<stop  offset="1" style="stop-color:#FFFFFF;stop-opacity:0"/>
				</linearGradient>
				<polygon style="fill:url(#SVGID_00000050629926946476996360000016424758953920836266_);" points="384,-281.1 402.6,-281.1 
					378.7,-307.3 373.4,-294.1 				"/>
				
					<linearGradient id="SVGID_00000112631728937713753990000008009472250623773360_" gradientUnits="userSpaceOnUse" x1="-95.518" y1="-47.0164" x2="-95.518" y2="-28.2593" gradientTransform="matrix(1.25 0 0 -1.25 503.1463 -371.5854)">
					<stop  offset="0" style="stop-color:#FFFFFF;stop-opacity:0"/>
					<stop  offset="0.9862" style="stop-color:#FFFFFF;stop-opacity:0.4931"/>
					<stop  offset="1" style="stop-color:#FFFFFF;stop-opacity:0.5"/>
				</linearGradient>
				<path style="fill:url(#SVGID_00000112631728937713753990000008009472250623773360_);" d="M386.7-331.6L386.7-331.6L386.7-331.6
					l-24.6,0v13.3l24.6,0c3,0,5.5,2.5,5.5,5.5h13.3C405.4-323.2,397-331.6,386.7-331.6z"/>
				
					<linearGradient id="SVGID_00000163072315635516430690000010188201140076430723_" gradientUnits="userSpaceOnUse" x1="-106.2794" y1="-54.366" x2="-80.9474" y2="-54.366" gradientTransform="matrix(1.25 0 0 -1.25 503.1463 -371.5854)">
					<stop  offset="0.2556" style="stop-color:#000000;stop-opacity:0.4"/>
					<stop  offset="0.461" style="stop-color:#0F0D0D;stop-opacity:0.2896"/>
					<stop  offset="0.758" style="stop-color:#1E1A1B;stop-opacity:0.1301"/>
					<stop  offset="1" style="stop-color:#231F20;stop-opacity:0"/>
				</linearGradient>
				<path style="fill:url(#SVGID_00000163072315635516430690000010188201140076430723_);" d="M405.4-312.8L405.4-312.8l-13.3,0v0
					c0,3-2.5,5.5-5.5,5.5v0l-8,0l11.8,12.9C399-296.2,405.4-303.8,405.4-312.8z"/>
			</g>
			
				<g id="path173341" transform="translate(0 314.26300000000003) translate(646.3371875 38.192) scale(1.25) translate(-611.97819 50.4)">
				<polygon class="st2" points="451.1,-318.3 451.1,-331.6 424.7,-331.6 424.7,-331.6 410.1,-318.3 410.1,-294.2 424.7,-281.1 
					424.7,-281.1 424.7,-281.1 424.7,-281.1 424.7,-281.1 451.1,-281.1 451.1,-294.4 424.7,-294.4 424.7,-300.4 448.7,-300.4 
					448.7,-313.7 424.7,-313.7 424.7,-318.3 				"/>
				
					<linearGradient id="SVGID_00000047763963967056752300000011787986842835797418_" gradientUnits="userSpaceOnUse" x1="-103.2546" y1="-52.1852" x2="-76.813" y2="-52.1852" gradientTransform="matrix(1.25 0 0 -1.25 553.7401 -371.5851)">
					<stop  offset="0" style="stop-color:#000000;stop-opacity:0.4"/>
					<stop  offset="0.276" style="stop-color:#0F0D0D;stop-opacity:0.2896"/>
					<stop  offset="0.6748" style="stop-color:#1E1A1B;stop-opacity:0.1301"/>
					<stop  offset="1" style="stop-color:#231F20;stop-opacity:0"/>
				</linearGradient>
				<path style="fill:url(#SVGID_00000047763963967056752300000011787986842835797418_);" d="M424.7-300.4v-13.3l24,0v13.3
					L424.7-300.4z M451.1-318.3v-13.3l-26.4,0v13.3L451.1-318.3z M451.1-281.1v-13.3l-26.4,0v13.3L451.1-281.1z"/>
				
					<linearGradient id="SVGID_00000127012111269941420430000003685967665837657996_" gradientUnits="userSpaceOnUse" x1="-109.0944" y1="-72.3598" x2="-109.0944" y2="-21.9234" gradientTransform="matrix(1.25 0 0 -1.25 553.7401 -371.5851)">
					<stop  offset="0" style="stop-color:#000000;stop-opacity:0.3"/>
					<stop  offset="0.2141" style="stop-color:#0F0D0D;stop-opacity:0.2173"/>
					<stop  offset="0.524" style="stop-color:#1E1A1B;stop-opacity:9.755000e-02"/>
					<stop  offset="0.7765" style="stop-color:#231F20;stop-opacity:0"/>
				</linearGradient>
				<polygon style="fill:url(#SVGID_00000127012111269941420430000003685967665837657996_);" points="410.1,-294.2 424.7,-281.1 
					424.7,-331.6 410.1,-318.3 				"/>
				
					<linearGradient id="SVGID_00000131332943489550924670000011605953097813515667_" gradientUnits="userSpaceOnUse" x1="-109.0944" y1="-72.3598" x2="-109.0944" y2="-21.9234" gradientTransform="matrix(1.25 0 0 -1.25 553.7401 -371.5851)">
					<stop  offset="0.2336" style="stop-color:#FFFFFF;stop-opacity:0"/>
					<stop  offset="0.9894" style="stop-color:#FFFFFF;stop-opacity:0.4931"/>
					<stop  offset="1" style="stop-color:#FFFFFF;stop-opacity:0.5"/>
				</linearGradient>
				<polygon style="fill:url(#SVGID_00000131332943489550924670000011605953097813515667_);" points="410.1,-294.2 424.7,-281.1 
					424.7,-331.6 410.1,-318.3 				"/>
			</g>
			
				<g id="path173343" transform="translate(0 314.26300000000003) translate(710.1396874999999 38.192) scale(1.25) translate(-660.02019 50.4)">
				<path class="st2" d="M482-331.6L482-331.6L482-331.6l-9.3,0l0,0v0l-14.6,13.3v37.2h14.6v0l9.3,0v0c14,0,25.3-11.2,25.3-25.1
					C507.3-320.2,495.9-331.6,482-331.6z M482-294.4L482-294.4l-9.3,0v-23.9l9.3,0v0c6.6,0,12,5.4,12,12S488.6-294.4,482-294.4z"/>
				
					<linearGradient id="SVGID_00000050622273174355395020000004456747066872004768_" gradientUnits="userSpaceOnUse" x1="-109.5104" y1="-52.1794" x2="-74.929" y2="-52.1794" gradientTransform="matrix(1.25 0 0 -1.25 609.6022 -371.585)">
					<stop  offset="0" style="stop-color:#000000;stop-opacity:0.4"/>
					<stop  offset="0.276" style="stop-color:#0F0D0D;stop-opacity:0.2896"/>
					<stop  offset="0.6748" style="stop-color:#1E1A1B;stop-opacity:0.1301"/>
					<stop  offset="1" style="stop-color:#231F20;stop-opacity:0"/>
				</linearGradient>
				<path style="fill:url(#SVGID_00000050622273174355395020000004456747066872004768_);" d="M482-331.6L482-331.6L482-331.6l-9.3,0
					l0,13.3l9.3,0v0c6.6,0,12,5.4,12,12s-5.4,11.8-12,11.8l0,0l-9.3,0l0,13.3l9.3,0v0c14,0,25.3-11.2,25.3-25.1
					C507.3-320.2,495.9-331.6,482-331.6z"/>
				
					<linearGradient id="SVGID_00000138552272627598262790000000961754567611827328_" gradientUnits="userSpaceOnUse" x1="-115.3506" y1="-72.3598" x2="-115.3506" y2="-21.9234" gradientTransform="matrix(1.25 0 0 -1.25 609.6022 -371.585)">
					<stop  offset="0" style="stop-color:#000000;stop-opacity:0.3"/>
					<stop  offset="0.2141" style="stop-color:#0F0D0D;stop-opacity:0.2173"/>
					<stop  offset="0.524" style="stop-color:#1E1A1B;stop-opacity:9.755000e-02"/>
					<stop  offset="0.7765" style="stop-color:#231F20;stop-opacity:0"/>
				</linearGradient>
				<polygon style="fill:url(#SVGID_00000138552272627598262790000000961754567611827328_);" points="458.1,-281.1 472.7,-281.1 
					472.7,-331.6 458.1,-318.3 				"/>
				
					<linearGradient id="SVGID_00000002363276362797719990000001625285761460633472_" gradientUnits="userSpaceOnUse" x1="-115.3506" y1="-72.3598" x2="-115.3506" y2="-21.9234" gradientTransform="matrix(1.25 0 0 -1.25 609.6022 -371.585)">
					<stop  offset="0.1874" style="stop-color:#FFFFFF;stop-opacity:0"/>
					<stop  offset="0.9888" style="stop-color:#FFFFFF;stop-opacity:0.4931"/>
					<stop  offset="1" style="stop-color:#FFFFFF;stop-opacity:0.5"/>
				</linearGradient>
				<polygon style="fill:url(#SVGID_00000002363276362797719990000001625285761460633472_);" points="458.1,-281.1 472.7,-281.1 
					472.7,-331.6 458.1,-318.3 				"/>
			</g>
		</g>
		<g>
			<defs>
				<polygon id="SVGID_00000050662687464522303680000010413265974893501834_" points="-251.4,-350.5 -250.4,-350.5 -251.4,-349.5 
									"/>
			</defs>
			<defs>
				<polygon id="SVGID_00000117667508900604584380000007485464771016044940_" points="-253.4,-352.5 -254.4,-352.5 -253.4,-353.5 
									"/>
			</defs>
			<clipPath id="SVGID_00000085941797813842263380000008867353169682615976_">
				<use xlink:href="#SVGID_00000050662687464522303680000010413265974893501834_"  style="overflow:visible;"/>
			</clipPath>
			
				<clipPath id="SVGID_00000047742420520311559860000004492710758747107749_" style="clip-path:url(#SVGID_00000085941797813842263380000008867353169682615976_);">
				<use xlink:href="#SVGID_00000117667508900604584380000007485464771016044940_"  style="overflow:visible;"/>
			</clipPath>
		</g>
	</g>
</g>
</svg>
