<?xml version="1.0" encoding="utf-8"?>
<!-- Generator: Adobe Illustrator 26.3.1, SVG Export Plug-In . SVG Version: 6.00 Build 0)  -->
<svg version="1.1"
	 id="svg182326" xmlns:dc="http://purl.org/dc/elements/1.1/" xmlns:cc="http://creativecommons.org/ns#" xmlns:svg="http://www.w3.org/2000/svg" xmlns:rdf="http://www.w3.org/1999/02/22-rdf-syntax-ns#"
	 xmlns="http://www.w3.org/2000/svg" xmlns:xlink="http://www.w3.org/1999/xlink" x="0px" y="0px" viewBox="0 0 138.9 127.7"
	 style="enable-background:new 0 0 138.9 127.7;" xml:space="preserve">
<style type="text/css">
	.st0{clip-path:url(#SVGID_00000129920626262779287930000012450914041947582101_);}
	.st1{fill:url(#SVGID_00000029733286989805623180000017593492728402540716_);}
	.st2{fill:#8D5EF0;}
	.st3{fill:url(#SVGID_00000145049064782793382340000010149649028686001055_);}
	.st4{fill:url(#SVGID_00000077303424256322017010000009046773358251347615_);}
	.st5{fill:url(#SVGID_00000048478362010139507990000014386203838673271219_);}
	.st6{clip-path:url(#SVGID_00000052825127243608847280000002439977407583173280_);}
</style>
<g id="logo-group">
	<g id="logo-center" transform="translate(-1.1368683772161603e-13 0)">
		<g>
			<defs>
				<polygon id="SVGID_1_" points="-440.2,-316.5 -439.2,-316.5 -440.2,-315.5 				"/>
			</defs>
			<defs>
				<polygon id="SVGID_00000111181463499111743430000007654179440066325920_" points="-442.2,-318.5 -443.2,-318.5 -442.2,-319.5 
									"/>
			</defs>
			<clipPath id="SVGID_00000122682396990255866300000006591389738622181779_">
				<use xlink:href="#SVGID_1_"  style="overflow:visible;"/>
			</clipPath>
			
				<clipPath id="SVGID_00000077302939319175089910000006408392509952392373_" style="clip-path:url(#SVGID_00000122682396990255866300000006591389738622181779_);">
				<use xlink:href="#SVGID_00000111181463499111743430000007654179440066325920_"  style="overflow:visible;"/>
			</clipPath>
		</g>
		<g id="slogan" transform="translate(0 0)">
		</g>
		<g id="title" transform="translate(0 0)">
			
				<g id="path182335" transform="translate(0 314.26300000000003) translate(252.3903125000001 37.202) scale(1.25) translate(-314.82069 51.192)">
				
					<linearGradient id="SVGID_00000063608392687114289340000011399842492575791495_" gradientUnits="userSpaceOnUse" x1="12.5945" y1="-179.0622" x2="6.1096" y2="-158.7967" gradientTransform="matrix(1.25 0 0 1.25 170.2209 -55.9718)">
					<stop  offset="0" style="stop-color:#000000;stop-opacity:0.4"/>
					<stop  offset="0.276" style="stop-color:#0F0D0D;stop-opacity:0.2896"/>
					<stop  offset="0.6748" style="stop-color:#1E1A1B;stop-opacity:0.1301"/>
					<stop  offset="1" style="stop-color:#231F20;stop-opacity:0"/>
				</linearGradient>
				<path style="fill:url(#SVGID_00000063608392687114289340000011399842492575791495_);" d="M188.8-279.2h-5.4
					c0,1.9-0.4,3.6-1.2,5.2c-2.1,4.5-6.8,7.6-12.3,7.6c-0.1,0-0.2,0-0.3,0v13.3c0.1,0,0.2,0,0.3,0c12.9,0,23.8-9,26.2-20.8v0
					L188.8-279.2z"/>
				<path class="st2" d="M188.8-279.2l-7.3-5.2h-9.2v10.4h9.9c-2.1,4.5-6.8,7.6-12.3,7.6c-0.1,0-0.2,0-0.3,0
					c-7.3-0.1-13.2-5.8-13.2-12.8c0-7,6.1-12.8,13.5-12.8c3.6,0,6.9,1.3,9.3,3.5l9.4-9.4c-4.8-4.6-11.4-7.4-18.7-7.4
					c-14.8,0-26.8,11.7-26.8,26c0,14.3,11.9,25.9,26.5,26c0.1,0,0.2,0,0.3,0c12.9,0,23.8-9,26.2-20.8l0,0v0L188.8-279.2z"/>
				
					<linearGradient id="SVGID_00000147192687347383538940000002565244688272762280_" gradientUnits="userSpaceOnUse" x1="1.6126" y1="-178.5735" x2="25.4499" y2="-178.5735" gradientTransform="matrix(1.25 0 0 1.25 170.2209 -55.9718)">
					<stop  offset="0.3033" style="stop-color:#FFFFFF;stop-opacity:0"/>
					<stop  offset="1" style="stop-color:#FFFFFF;stop-opacity:0.5"/>
				</linearGradient>
				<polygon style="fill:url(#SVGID_00000147192687347383538940000002565244688272762280_);" points="196.1,-274 196.1,-274 
					172.2,-274 172.2,-284.4 181.5,-284.4 188.8,-279.2 				"/>
				
					<linearGradient id="SVGID_00000057851608157855676750000002166805927856350864_" gradientUnits="userSpaceOnUse" x1="1.6126" y1="-178.5735" x2="25.4499" y2="-178.5735" gradientTransform="matrix(1.25 0 0 1.25 170.2209 -55.9718)">
					<stop  offset="0" style="stop-color:#000000;stop-opacity:0.4"/>
					<stop  offset="0.2169" style="stop-color:#0F0E0E;stop-opacity:0.25"/>
					<stop  offset="0.5104" style="stop-color:#1E1B1B;stop-opacity:0.1"/>
					<stop  offset="0.7568" style="stop-color:#231F20;stop-opacity:0"/>
				</linearGradient>
				<polygon style="fill:url(#SVGID_00000057851608157855676750000002166805927856350864_);" points="196.1,-274 196.1,-274 
					172.2,-274 172.2,-284.4 181.5,-284.4 188.8,-279.2 				"/>
				
					<linearGradient id="SVGID_00000164475306154637908050000005197148591915766149_" gradientUnits="userSpaceOnUse" x1="-3.5477" y1="-157.7411" x2="-3.5477" y2="-209.8288" gradientTransform="matrix(1.25 0 0 1.25 170.2209 -55.9718)">
					<stop  offset="0.1751" style="stop-color:#FFFFFF;stop-opacity:0"/>
					<stop  offset="1" style="stop-color:#FFFFFF;stop-opacity:0.5"/>
				</linearGradient>
				<path style="fill:url(#SVGID_00000164475306154637908050000005197148591915766149_);" d="M156.3-279.2c0-7,6.1-12.8,13.5-12.8
					c3.6,0,6.9,1.3,9.3,3.5l9.4-9.4c-4.8-4.6-11.4-7.4-18.7-7.4c-14.8,0-26.8,11.7-26.8,26c0,14.3,11.9,25.9,26.5,26v-13.3
					C162.3-266.6,156.3-272.2,156.3-279.2z"/>
			</g>
		</g>
		<g>
			<defs>
				<polygon id="SVGID_00000171694182914574706490000002273511652306308022_" points="-440.2,-316.5 -439.2,-316.5 -440.2,-315.5 
									"/>
			</defs>
			<defs>
				<polygon id="SVGID_00000078767065457829542140000003842039386603013275_" points="-442.2,-318.5 -443.2,-318.5 -442.2,-319.5 
									"/>
			</defs>
			<clipPath id="SVGID_00000011022818851710367700000004701056675410393731_">
				<use xlink:href="#SVGID_00000171694182914574706490000002273511652306308022_"  style="overflow:visible;"/>
			</clipPath>
			
				<clipPath id="SVGID_00000156566886182260734920000006275634049347275418_" style="clip-path:url(#SVGID_00000011022818851710367700000004701056675410393731_);">
				<use xlink:href="#SVGID_00000078767065457829542140000003842039386603013275_"  style="overflow:visible;"/>
			</clipPath>
		</g>
	</g>
</g>
</svg>
