<?xml version="1.0" encoding="utf-8"?>
<!-- Generator: Adobe Illustrator 26.3.1, SVG Export Plug-In . SVG Version: 6.00 Build 0)  -->
<svg version="1.1"
	 id="svg234421" xmlns:rdf="http://www.w3.org/1999/02/22-rdf-syntax-ns#" xmlns:dc="http://purl.org/dc/elements/1.1/" xmlns:svg="http://www.w3.org/2000/svg" xmlns:cc="http://creativecommons.org/ns#"
	 xmlns="http://www.w3.org/2000/svg" xmlns:xlink="http://www.w3.org/1999/xlink" x="0px" y="0px" viewBox="0 0 559 104"
	 style="enable-background:new 0 0 559 104;" xml:space="preserve">
<style type="text/css">
	.st0{clip-path:url(#SVGID_00000113324273297526807570000003397619980677351594_);}
	.st1{fill:url(#SVGID_00000141419382732876768990000009940409549982221456_);}
	.st2{fill:#8D5EF0;}
	.st3{fill:url(#SVGID_00000031929172433862653770000001790443713335708831_);}
	.st4{fill:url(#SVGID_00000066474776242953058620000017066434270315921563_);}
	.st5{fill:url(#SVGID_00000000221835307112631420000008365361197914643867_);}
	.st6{fill:url(#SVGID_00000044870172198714764920000014049926537750751385_);}
	.st7{fill:url(#SVGID_00000176761730784581626250000011671913735412367235_);}
	.st8{fill:url(#SVGID_00000062913286796585044150000003802353545605451934_);}
	.st9{fill:url(#SVGID_00000113349039810172361420000005839464924024553392_);}
	.st10{fill:url(#SVGID_00000029006794107455423110000010550837455364364167_);}
	.st11{fill:url(#SVGID_00000164501091823153265040000005086628017990738314_);}
	.st12{fill:url(#SVGID_00000180349335961762657580000004059140312610057608_);}
	.st13{fill:url(#SVGID_00000127727462848503766750000003937978785928569782_);}
	.st14{fill:url(#SVGID_00000158723654047098376320000009583921579603135398_);}
	.st15{fill:url(#SVGID_00000150092358206527671470000013828791069704051626_);}
	.st16{fill:url(#SVGID_00000152262896279120136150000004822209082414082209_);}
	.st17{fill:url(#SVGID_00000115507307337591361920000000123191663533045928_);}
	.st18{fill:url(#SVGID_00000046336082563032029600000004480299175200785578_);}
	.st19{fill:url(#SVGID_00000056390717468973387970000008527399965624039346_);}
	.st20{fill:url(#SVGID_00000112621421390133316270000008053608863806301831_);}
	.st21{fill:url(#SVGID_00000131338840361067159890000003933310375002986940_);}
	.st22{fill:url(#SVGID_00000178199750606461930910000009737463461237192839_);}
	.st23{fill:url(#SVGID_00000052083228766460742210000016752996329682016169_);}
	.st24{fill:url(#SVGID_00000066505124709832187180000010704337264808287422_);}
	.st25{fill:url(#SVGID_00000104699718600725658650000004096450039572322236_);}
	.st26{fill:url(#SVGID_00000169546989858782924710000000896907614674812039_);}
	.st27{fill:url(#SVGID_00000091701287268958445710000016585919285059513475_);}
	.st28{fill:url(#SVGID_00000052102391859600561150000001903336365023216512_);}
	.st29{fill:url(#SVGID_00000007399451136635685100000003638007184111233206_);}
	.st30{fill:url(#SVGID_00000147920437065831747000000014707454675164165760_);}
	.st31{fill:url(#SVGID_00000001646444232996712890000007137724243415470720_);}
	.st32{fill:url(#SVGID_00000036943583639166698320000000147240070029621178_);}
	.st33{clip-path:url(#SVGID_00000150793120857541429750000006374906431564313007_);}
</style>
<g id="logo-group">
	<g id="logo-center" transform="translate(-1.1368683772161603e-13 0)">
		<g>
			<defs>
				<polygon id="SVGID_1_" points="-233,-332.3 -232,-332.3 -233,-331.3 				"/>
			</defs>
			<defs>
				<polygon id="SVGID_00000117659642538809931140000005333342530263173531_" points="-235,-334.3 -236,-334.3 -235,-335.3 				"/>
			</defs>
			<clipPath id="SVGID_00000160158100768098286510000009683727854738851995_">
				<use xlink:href="#SVGID_1_"  style="overflow:visible;"/>
			</clipPath>
			
				<clipPath id="SVGID_00000062905921007624539650000000159847074983968641_" style="clip-path:url(#SVGID_00000160158100768098286510000009683727854738851995_);">
				<use xlink:href="#SVGID_00000117659642538809931140000005333342530263173531_"  style="overflow:visible;"/>
			</clipPath>
		</g>
		<g id="slogan" transform="translate(0 0)">
		</g>
		<g id="title" transform="translate(0 0)">
			
				<g id="path234430" transform="translate(0 314.26300000000003) translate(252.3903125000001 37.202) scale(1.25) translate(-314.82069 51.192)">
				
					<linearGradient id="SVGID_00000009552260516071509220000008805506058753596041_" gradientUnits="userSpaceOnUse" x1="33.3819" y1="-191.6426" x2="26.897" y2="-171.3771" gradientTransform="matrix(1.25 0 0 1.25 128.7869 -52.8229)">
					<stop  offset="0" style="stop-color:#000000;stop-opacity:0.4"/>
					<stop  offset="0.276" style="stop-color:#0F0D0D;stop-opacity:0.2896"/>
					<stop  offset="0.6748" style="stop-color:#1E1A1B;stop-opacity:0.1301"/>
					<stop  offset="1" style="stop-color:#231F20;stop-opacity:0"/>
				</linearGradient>
				<path style="fill:url(#SVGID_00000009552260516071509220000008805506058753596041_);" d="M173.3-291.8h-5.4
					c0,1.9-0.4,3.6-1.2,5.2c-2.1,4.5-6.8,7.6-12.3,7.6c-0.1,0-0.2,0-0.3,0v13.3c0.1,0,0.2,0,0.3,0c12.9,0,23.8-9,26.2-20.8v0
					L173.3-291.8z"/>
				<path class="st2" d="M173.3-291.8L166-297h-9.2v10.4h9.9c-2.1,4.5-6.8,7.6-12.3,7.6c-0.1,0-0.2,0-0.3,0
					c-7.3-0.1-13.2-5.8-13.2-12.8c0-7,6.1-12.8,13.5-12.8c3.6,0,6.9,1.3,9.3,3.5l9.4-9.4c-4.8-4.6-11.4-7.4-18.7-7.4
					c-14.8,0-26.8,11.7-26.8,26c0,14.3,11.9,25.9,26.5,26c0.1,0,0.2,0,0.3,0c12.9,0,23.8-9,26.2-20.8l0,0v0L173.3-291.8z"/>
				
					<linearGradient id="SVGID_00000166666251385379677850000004478932600952929927_" gradientUnits="userSpaceOnUse" x1="22.4" y1="-191.1539" x2="46.2373" y2="-191.1539" gradientTransform="matrix(1.25 0 0 1.25 128.7869 -52.8229)">
					<stop  offset="0.3033" style="stop-color:#FFFFFF;stop-opacity:0"/>
					<stop  offset="1" style="stop-color:#FFFFFF;stop-opacity:0.5"/>
				</linearGradient>
				<polygon style="fill:url(#SVGID_00000166666251385379677850000004478932600952929927_);" points="180.6,-286.6 180.6,-286.6 
					156.8,-286.6 156.8,-297 166,-297 173.3,-291.8 				"/>
				
					<linearGradient id="SVGID_00000116951285517277234330000001474859726147233927_" gradientUnits="userSpaceOnUse" x1="22.4" y1="-191.1539" x2="46.2373" y2="-191.1539" gradientTransform="matrix(1.25 0 0 1.25 128.7869 -52.8229)">
					<stop  offset="0" style="stop-color:#000000;stop-opacity:0.4"/>
					<stop  offset="0.2169" style="stop-color:#0F0E0E;stop-opacity:0.25"/>
					<stop  offset="0.5104" style="stop-color:#1E1B1B;stop-opacity:0.1"/>
					<stop  offset="0.7568" style="stop-color:#231F20;stop-opacity:0"/>
				</linearGradient>
				<polygon style="fill:url(#SVGID_00000116951285517277234330000001474859726147233927_);" points="180.6,-286.6 180.6,-286.6 
					156.8,-286.6 156.8,-297 166,-297 173.3,-291.8 				"/>
				
					<linearGradient id="SVGID_00000074406330285968862280000014569226523662186386_" gradientUnits="userSpaceOnUse" x1="17.2397" y1="-170.3215" x2="17.2397" y2="-222.4092" gradientTransform="matrix(1.25 0 0 1.25 128.7869 -52.8229)">
					<stop  offset="0.1751" style="stop-color:#FFFFFF;stop-opacity:0"/>
					<stop  offset="1" style="stop-color:#FFFFFF;stop-opacity:0.5"/>
				</linearGradient>
				<path style="fill:url(#SVGID_00000074406330285968862280000014569226523662186386_);" d="M140.9-291.8c0-7,6.1-12.8,13.5-12.8
					c3.6,0,6.9,1.3,9.3,3.5l9.4-9.4c-4.8-4.6-11.4-7.4-18.7-7.4c-14.8,0-26.8,11.7-26.8,26c0,14.3,11.9,25.9,26.5,26V-279
					C146.8-279.1,140.9-284.8,140.9-291.8z"/>
			</g>
			
				<g id="path234432" transform="translate(0 314.26300000000003) translate(326.82546250000007 38.192) scale(1.25) translate(-371.36881 50.4)">
				<polygon class="st2" points="225.2,-303.7 225.2,-317 198.8,-317 198.8,-317 184.2,-303.7 184.2,-279.7 198.8,-266.6 
					198.8,-266.6 198.8,-266.6 198.8,-266.6 198.8,-266.6 225.2,-266.6 225.2,-279.9 198.8,-279.9 198.8,-285.8 222.8,-285.8 
					222.8,-299.1 198.8,-299.1 198.8,-303.7 				"/>
				
					<linearGradient id="SVGID_00000021083633090159427760000008418590539960983180_" gradientUnits="userSpaceOnUse" x1="12.5318" y1="-78.3732" x2="38.9734" y2="-78.3732" gradientTransform="matrix(1.25 0 0 -1.25 183.1041 -389.7686)">
					<stop  offset="0" style="stop-color:#000000;stop-opacity:0.4"/>
					<stop  offset="0.276" style="stop-color:#0F0D0D;stop-opacity:0.2896"/>
					<stop  offset="0.6748" style="stop-color:#1E1A1B;stop-opacity:0.1301"/>
					<stop  offset="1" style="stop-color:#231F20;stop-opacity:0"/>
				</linearGradient>
				<path style="fill:url(#SVGID_00000021083633090159427760000008418590539960983180_);" d="M198.8-285.8l0-13.3l24,0v13.3
					L198.8-285.8z M225.2-303.7V-317l-26.4,0v13.3L225.2-303.7z M225.2-266.6v-13.3l-26.4,0v13.3L225.2-266.6z"/>
				
					<linearGradient id="SVGID_00000075150235529471922560000010796985487905141915_" gradientUnits="userSpaceOnUse" x1="6.692" y1="-98.5478" x2="6.692" y2="-48.1114" gradientTransform="matrix(1.25 0 0 -1.25 183.1041 -389.7686)">
					<stop  offset="0" style="stop-color:#000000;stop-opacity:0.3"/>
					<stop  offset="0.2141" style="stop-color:#0F0D0D;stop-opacity:0.2173"/>
					<stop  offset="0.524" style="stop-color:#1E1A1B;stop-opacity:9.755000e-02"/>
					<stop  offset="0.7765" style="stop-color:#231F20;stop-opacity:0"/>
				</linearGradient>
				<polygon style="fill:url(#SVGID_00000075150235529471922560000010796985487905141915_);" points="184.2,-279.7 198.8,-266.6 
					198.8,-317 184.2,-303.7 				"/>
				
					<linearGradient id="SVGID_00000047764851417114379080000001903220454084248758_" gradientUnits="userSpaceOnUse" x1="6.692" y1="-98.5478" x2="6.692" y2="-48.1114" gradientTransform="matrix(1.25 0 0 -1.25 183.1041 -389.7686)">
					<stop  offset="0.2336" style="stop-color:#FFFFFF;stop-opacity:0"/>
					<stop  offset="0.9894" style="stop-color:#FFFFFF;stop-opacity:0.4931"/>
					<stop  offset="1" style="stop-color:#FFFFFF;stop-opacity:0.5"/>
				</linearGradient>
				<polygon style="fill:url(#SVGID_00000047764851417114379080000001903220454084248758_);" points="184.2,-279.7 198.8,-266.6 
					198.8,-317 184.2,-303.7 				"/>
			</g>
			
				<g id="path234434" transform="translate(0 314.26300000000003) translate(388.1079625000001 38.192) scale(1.25) translate(-417.39481 50.4)">
				<polygon class="st2" points="275.8,-285.9 261.2,-299.1 244.8,-299.1 244.8,-303.7 273.8,-303.7 273.8,-317 244.8,-317 
					244.8,-317 234.3,-307.5 230.2,-303.7 230.2,-303.7 230.2,-299.1 230.2,-299.1 244.8,-285.9 261.2,-285.9 261.2,-279.9 
					232.2,-279.9 232.2,-266.6 261.2,-266.6 261.2,-266.6 271.7,-276.1 275.8,-279.9 275.8,-279.9 275.8,-285.9 275.8,-285.9 				
					"/>
				
					<linearGradient id="SVGID_00000018954189924001036130000016387428875137598651_" gradientUnits="userSpaceOnUse" x1="-2.3804" y1="-93.2381" x2="23.9979" y2="-93.2381" gradientTransform="matrix(1.25 0 0 -1.25 235.1704 -389.7858)">
					<stop  offset="0" style="stop-color:#FFFFFF;stop-opacity:0.5"/>
					<stop  offset="1.383000e-02" style="stop-color:#FFFFFF;stop-opacity:0.4931"/>
					<stop  offset="1" style="stop-color:#FFFFFF;stop-opacity:0"/>
				</linearGradient>
				<polygon style="fill:url(#SVGID_00000018954189924001036130000016387428875137598651_);" points="261.2,-266.6 275.8,-279.9 
					232.2,-279.9 232.2,-266.6 				"/>
				
					<linearGradient id="SVGID_00000121261625415970891180000008625405498558291632_" gradientUnits="userSpaceOnUse" x1="206.1333" y1="-192.6992" x2="232.5116" y2="-192.6992" gradientTransform="matrix(-1.25 0 0 1.25 531.4835 -69.5094)">
					<stop  offset="0" style="stop-color:#FFFFFF;stop-opacity:0"/>
					<stop  offset="0.9862" style="stop-color:#FFFFFF;stop-opacity:0.4931"/>
					<stop  offset="1" style="stop-color:#FFFFFF;stop-opacity:0.5"/>
				</linearGradient>
				<polygon style="fill:url(#SVGID_00000121261625415970891180000008625405498558291632_);" points="244.8,-317 230.2,-303.7 
					273.8,-303.7 273.8,-317 				"/>
				
					<linearGradient id="SVGID_00000070110995512519292540000008998276635379801772_" gradientUnits="userSpaceOnUse" x1="26.6772" y1="-80.4709" x2="26.6772" y2="-94.1985" gradientTransform="matrix(1.25 0 0 -1.25 235.1704 -389.7858)">
					<stop  offset="0" style="stop-color:#000000;stop-opacity:0.4"/>
					<stop  offset="0.276" style="stop-color:#0F0D0D;stop-opacity:0.2896"/>
					<stop  offset="0.6748" style="stop-color:#1E1A1B;stop-opacity:0.1301"/>
					<stop  offset="1" style="stop-color:#231F20;stop-opacity:0"/>
				</linearGradient>
				<polygon style="fill:url(#SVGID_00000070110995512519292540000008998276635379801772_);" points="275.8,-279.9 261.2,-266.6 
					261.2,-285.9 275.8,-285.9 				"/>
				
					<linearGradient id="SVGID_00000075869840418207562190000001495891402914078614_" gradientUnits="userSpaceOnUse" x1="2.2437" y1="-62.1675" x2="1.7315" y2="-80.6064" gradientTransform="matrix(1.25 0 0 -1.25 235.1704 -389.7858)">
					<stop  offset="0" style="stop-color:#000000;stop-opacity:0.4"/>
					<stop  offset="0.276" style="stop-color:#0F0D0D;stop-opacity:0.2896"/>
					<stop  offset="0.6748" style="stop-color:#1E1A1B;stop-opacity:0.1301"/>
					<stop  offset="1" style="stop-color:#231F20;stop-opacity:0"/>
				</linearGradient>
				<polygon style="fill:url(#SVGID_00000075869840418207562190000001495891402914078614_);" points="230.2,-303.7 230.2,-299.1 
					244.8,-285.9 244.8,-303.7 				"/>
				
					<linearGradient id="SVGID_00000009586329017654414390000010487866086873905083_" gradientUnits="userSpaceOnUse" x1="3.2719" y1="-178.3851" x2="30.8596" y2="-178.3851" gradientTransform="matrix(1.25 0 0 1.25 235.1702 -69.5094)">
					<stop  offset="0" style="stop-color:#000000;stop-opacity:0.4"/>
					<stop  offset="0.276" style="stop-color:#0F0D0D;stop-opacity:0.2896"/>
					<stop  offset="0.6748" style="stop-color:#1E1A1B;stop-opacity:0.1301"/>
					<stop  offset="1" style="stop-color:#231F20;stop-opacity:0"/>
				</linearGradient>
				<polygon style="fill:url(#SVGID_00000009586329017654414390000010487866086873905083_);" points="261.2,-299.1 244.8,-299.1 
					244.8,-285.9 275.8,-285.9 				"/>
				
					<linearGradient id="SVGID_00000159441105095774272290000000987945723964309653_" gradientUnits="userSpaceOnUse" x1="3.2719" y1="-178.3851" x2="30.8596" y2="-178.3851" gradientTransform="matrix(1.25 0 0 1.25 235.1702 -69.5094)">
					<stop  offset="0" style="stop-color:#FFFFFF;stop-opacity:0"/>
					<stop  offset="0.9862" style="stop-color:#FFFFFF;stop-opacity:0.4931"/>
					<stop  offset="1" style="stop-color:#FFFFFF;stop-opacity:0.5"/>
				</linearGradient>
				<polygon style="fill:url(#SVGID_00000159441105095774272290000000987945723964309653_);" points="261.2,-299.1 244.8,-299.1 
					244.8,-285.9 275.8,-285.9 				"/>
				
					<linearGradient id="SVGID_00000050625805111165547380000012786337869779488682_" gradientUnits="userSpaceOnUse" x1="29.9266" y1="-93.2381" x2="-0.249" y2="-93.2381" gradientTransform="matrix(1.25 0 0 -1.25 235.1704 -389.7858)">
					<stop  offset="0" style="stop-color:#000000;stop-opacity:0.4"/>
					<stop  offset="0.276" style="stop-color:#0F0D0D;stop-opacity:0.2896"/>
					<stop  offset="0.6748" style="stop-color:#1E1A1B;stop-opacity:0.1301"/>
					<stop  offset="1" style="stop-color:#231F20;stop-opacity:0"/>
				</linearGradient>
				
					<rect x="232.2" y="-279.9" style="fill:url(#SVGID_00000050625805111165547380000012786337869779488682_);" width="29" height="13.3"/>
			</g>
			
				<g id="path234436" transform="translate(0 314.26300000000003) translate(452.57140000000004 38.192) scale(1.25) translate(-465.96556 50.4)">
				<polygon class="st2" points="322.3,-317 293.2,-317 293.2,-317 278.8,-317 278.8,-303.7 293.2,-303.7 293.2,-303.7 
					293.2,-303.7 293.2,-266.6 307.8,-266.6 307.8,-303.7 322.3,-303.7 				"/>
				
					<linearGradient id="SVGID_00000054958631885323036970000017382871882002936510_" gradientUnits="userSpaceOnUse" x1="10.2743" y1="-63.5073" x2="-9.4554" y2="-63.5073" gradientTransform="matrix(1.25 0 0 -1.25 286.4604 -389.7682)">
					<stop  offset="0.2556" style="stop-color:#000000;stop-opacity:0.4"/>
					<stop  offset="0.461" style="stop-color:#0F0D0D;stop-opacity:0.2896"/>
					<stop  offset="0.758" style="stop-color:#1E1A1B;stop-opacity:0.1301"/>
					<stop  offset="1" style="stop-color:#231F20;stop-opacity:0"/>
				</linearGradient>
				<polygon style="fill:url(#SVGID_00000054958631885323036970000017382871882002936510_);" points="278.8,-303.7 278.8,-317 
					293.2,-317 293.2,-303.7 				"/>
				
					<linearGradient id="SVGID_00000013878630232230120250000008819200901764665247_" gradientUnits="userSpaceOnUse" x1="11.2689" y1="-60.0136" x2="11.2689" y2="-108.2051" gradientTransform="matrix(1.25 0 0 -1.25 286.4604 -389.7682)">
					<stop  offset="0" style="stop-color:#FFFFFF;stop-opacity:0.5"/>
					<stop  offset="1.383000e-02" style="stop-color:#FFFFFF;stop-opacity:0.4931"/>
					<stop  offset="1" style="stop-color:#FFFFFF;stop-opacity:0"/>
				</linearGradient>
				<polygon style="fill:url(#SVGID_00000013878630232230120250000008819200901764665247_);" points="293.2,-266.6 307.8,-266.6 
					307.8,-303.7 293.2,-317 				"/>
				
					<linearGradient id="SVGID_00000011005989451095593570000017826689978779718840_" gradientUnits="userSpaceOnUse" x1="9.8468" y1="-69.7937" x2="19.9026" y2="-61.0308" gradientTransform="matrix(1.25 0 0 -1.25 286.4604 -389.7682)">
					<stop  offset="0.2556" style="stop-color:#000000;stop-opacity:0.4"/>
					<stop  offset="0.461" style="stop-color:#0F0D0D;stop-opacity:0.2896"/>
					<stop  offset="0.758" style="stop-color:#1E1A1B;stop-opacity:0.1301"/>
					<stop  offset="1" style="stop-color:#231F20;stop-opacity:0"/>
				</linearGradient>
				<polygon style="fill:url(#SVGID_00000011005989451095593570000017826689978779718840_);" points="322.3,-317 293.2,-317 
					307.8,-303.7 322.3,-303.7 				"/>
			</g>
			
				<g id="path234438" transform="translate(0 314.26300000000003) translate(516.3429625 38.192) scale(1.25) translate(-513.98281 50.4)">
				<polygon class="st2" points="372.4,-317 357.8,-317 357.8,-279.9 341.4,-279.9 341.4,-317 326.8,-317 326.8,-279.9 
					341.3,-266.6 341.4,-266.6 341.4,-266.6 341.4,-266.6 357.8,-266.6 357.8,-266.6 368.3,-276.1 372.4,-279.9 372.4,-279.9 
					372.4,-279.9 				"/>
				
					<linearGradient id="SVGID_00000080904175308357237030000011384694940085825971_" gradientUnits="userSpaceOnUse" x1="-4.1402" y1="-96.493" x2="-4.1402" y2="-50.2259" gradientTransform="matrix(1.25 0 0 -1.25 339.2583 -389.7688)">
					<stop  offset="0" style="stop-color:#000000;stop-opacity:0.4"/>
					<stop  offset="0.1974" style="stop-color:#0F0D0D;stop-opacity:0.2896"/>
					<stop  offset="0.4829" style="stop-color:#1E1A1B;stop-opacity:0.1301"/>
					<stop  offset="0.7155" style="stop-color:#231F20;stop-opacity:0"/>
				</linearGradient>
				<polygon style="fill:url(#SVGID_00000080904175308357237030000011384694940085825971_);" points="326.8,-279.9 341.4,-266.6 
					341.4,-317 326.8,-317 				"/>
				
					<linearGradient id="SVGID_00000067236935194088603670000004164025038985880766_" gradientUnits="userSpaceOnUse" x1="-4.1402" y1="-96.493" x2="-4.1402" y2="-50.2259" gradientTransform="matrix(1.25 0 0 -1.25 339.2583 -389.7688)">
					<stop  offset="0.2055" style="stop-color:#FFFFFF;stop-opacity:0"/>
					<stop  offset="0.989" style="stop-color:#FFFFFF;stop-opacity:0.4931"/>
					<stop  offset="1" style="stop-color:#FFFFFF;stop-opacity:0.5"/>
				</linearGradient>
				<polygon style="fill:url(#SVGID_00000067236935194088603670000004164025038985880766_);" points="326.8,-279.9 341.4,-266.6 
					341.4,-317 326.8,-317 				"/>
				
					<linearGradient id="SVGID_00000059268397149478594020000014209380889517705403_" gradientUnits="userSpaceOnUse" x1="1.6989" y1="-93.2381" x2="20.4585" y2="-93.2381" gradientTransform="matrix(1.25 0 0 -1.25 339.2583 -389.7688)">
					<stop  offset="0" style="stop-color:#000000;stop-opacity:0.4"/>
					<stop  offset="0.276" style="stop-color:#0F0D0D;stop-opacity:0.2896"/>
					<stop  offset="0.6748" style="stop-color:#1E1A1B;stop-opacity:0.1301"/>
					<stop  offset="1" style="stop-color:#231F20;stop-opacity:0"/>
				</linearGradient>
				<polygon style="fill:url(#SVGID_00000059268397149478594020000014209380889517705403_);" points="357.8,-266.6 372.4,-279.9 
					341.4,-279.9 341.4,-266.6 				"/>
				
					<linearGradient id="SVGID_00000075126958641022172450000010726867267967735469_" gradientUnits="userSpaceOnUse" x1="1.7" y1="-93.2381" x2="20.4588" y2="-93.2381" gradientTransform="matrix(1.25 0 0 -1.25 339.2583 -389.7688)">
					<stop  offset="0.1818" style="stop-color:#FFFFFF;stop-opacity:0"/>
					<stop  offset="0.9887" style="stop-color:#FFFFFF;stop-opacity:0.4931"/>
					<stop  offset="1" style="stop-color:#FFFFFF;stop-opacity:0.5"/>
				</linearGradient>
				<polygon style="fill:url(#SVGID_00000075126958641022172450000010726867267967735469_);" points="357.8,-266.6 372.4,-279.9 
					341.4,-279.9 341.4,-266.6 				"/>
				
					<linearGradient id="SVGID_00000029751913131009463870000016385291549598184580_" gradientUnits="userSpaceOnUse" x1="20.677" y1="-92.0678" x2="20.677" y2="-69.9301" gradientTransform="matrix(1.25 0 0 -1.25 339.2583 -389.7688)">
					<stop  offset="0" style="stop-color:#000000;stop-opacity:0.4"/>
					<stop  offset="0.276" style="stop-color:#0F0D0D;stop-opacity:0.2896"/>
					<stop  offset="0.6748" style="stop-color:#1E1A1B;stop-opacity:0.1301"/>
					<stop  offset="1" style="stop-color:#231F20;stop-opacity:0"/>
				</linearGradient>
				
					<rect x="357.8" y="-317" style="fill:url(#SVGID_00000029751913131009463870000016385291549598184580_);" width="14.6" height="37.2"/>
			</g>
			
				<g id="path234440" transform="translate(0 314.26300000000003) translate(582.5909375 38.192) scale(1.25) translate(-563.98119 50.4)">
				<path class="st2" d="M420.1-298.3L420.1-298.3c0-10.4-8.4-18.8-18.8-18.8l-24.6,0v13.3l24.6,0c3,0,5.5,2.5,5.5,5.5v0
					c0,3-2.5,5.5-5.5,5.5v0l-8,0l-5.3,13.3l10.7,12.9h18.6l-12.2-13.3C413.7-281.6,420.1-289.2,420.1-298.3z"/>
				
					<linearGradient id="SVGID_00000110454030011158542190000014896876191584460179_" gradientUnits="userSpaceOnUse" x1="-0.3545" y1="-82.2826" x2="15.5833" y2="-101.8982" gradientTransform="matrix(1.25 0 0 -1.25 391.8697 -389.7689)">
					<stop  offset="0" style="stop-color:#FFFFFF;stop-opacity:0.5"/>
					<stop  offset="1.383000e-02" style="stop-color:#FFFFFF;stop-opacity:0.4931"/>
					<stop  offset="1" style="stop-color:#FFFFFF;stop-opacity:0"/>
				</linearGradient>
				<polygon style="fill:url(#SVGID_00000110454030011158542190000014896876191584460179_);" points="398.7,-266.6 417.3,-266.6 
					393.4,-292.8 388.1,-279.5 				"/>
				
					<linearGradient id="SVGID_00000000928909856470573080000013065481708416494766_" gradientUnits="userSpaceOnUse" x1="5.2684" y1="-73.2044" x2="5.2684" y2="-54.4473" gradientTransform="matrix(1.25 0 0 -1.25 391.8697 -389.7689)">
					<stop  offset="0" style="stop-color:#FFFFFF;stop-opacity:0"/>
					<stop  offset="0.9862" style="stop-color:#FFFFFF;stop-opacity:0.4931"/>
					<stop  offset="1" style="stop-color:#FFFFFF;stop-opacity:0.5"/>
				</linearGradient>
				<path style="fill:url(#SVGID_00000000928909856470573080000013065481708416494766_);" d="M401.4-317L401.4-317L401.4-317
					l-24.6,0v13.3l24.6,0c3,0,5.5,2.5,5.5,5.5h13.3C420.1-308.6,411.7-317,401.4-317z"/>
				
					<linearGradient id="SVGID_00000105400757302163344110000008019108770002854307_" gradientUnits="userSpaceOnUse" x1="-5.493" y1="-80.554" x2="19.8391" y2="-80.554" gradientTransform="matrix(1.25 0 0 -1.25 391.8697 -389.7689)">
					<stop  offset="0.2556" style="stop-color:#000000;stop-opacity:0.4"/>
					<stop  offset="0.461" style="stop-color:#0F0D0D;stop-opacity:0.2896"/>
					<stop  offset="0.758" style="stop-color:#1E1A1B;stop-opacity:0.1301"/>
					<stop  offset="1" style="stop-color:#231F20;stop-opacity:0"/>
				</linearGradient>
				<path style="fill:url(#SVGID_00000105400757302163344110000008019108770002854307_);" d="M420.1-298.3L420.1-298.3l-13.3,0v0
					c0,3-2.5,5.5-5.5,5.5v0l-8,0l11.8,12.9C413.7-281.6,420.1-289.2,420.1-298.3z"/>
			</g>
			
				<g id="path234442" transform="translate(0 314.26300000000003) translate(646.3371875 38.192) scale(1.25) translate(-611.97819 50.4)">
				<polygon class="st2" points="465.8,-303.7 465.8,-317 439.4,-317 439.4,-317 424.8,-303.7 424.8,-279.7 439.4,-266.6 
					439.4,-266.6 439.4,-266.6 439.4,-266.6 439.4,-266.6 465.8,-266.6 465.8,-279.9 439.4,-279.9 439.4,-285.8 463.4,-285.8 
					463.4,-299.1 439.4,-299.1 439.4,-303.7 				"/>
				
					<linearGradient id="SVGID_00000134953401328661689320000002499761585818916026_" gradientUnits="userSpaceOnUse" x1="-2.4681" y1="-78.3732" x2="23.9735" y2="-78.3732" gradientTransform="matrix(1.25 0 0 -1.25 442.4634 -389.7686)">
					<stop  offset="0" style="stop-color:#000000;stop-opacity:0.4"/>
					<stop  offset="0.276" style="stop-color:#0F0D0D;stop-opacity:0.2896"/>
					<stop  offset="0.6748" style="stop-color:#1E1A1B;stop-opacity:0.1301"/>
					<stop  offset="1" style="stop-color:#231F20;stop-opacity:0"/>
				</linearGradient>
				<path style="fill:url(#SVGID_00000134953401328661689320000002499761585818916026_);" d="M439.4-285.8v-13.3l24,0v13.3
					L439.4-285.8z M465.8-303.7V-317l-26.4,0v13.3L465.8-303.7z M465.8-266.6v-13.3l-26.4,0v13.3L465.8-266.6z"/>
				
					<linearGradient id="SVGID_00000154417524543300663910000000795425358590210448_" gradientUnits="userSpaceOnUse" x1="-8.308" y1="-98.5478" x2="-8.308" y2="-48.1114" gradientTransform="matrix(1.25 0 0 -1.25 442.4634 -389.7686)">
					<stop  offset="0" style="stop-color:#000000;stop-opacity:0.3"/>
					<stop  offset="0.2141" style="stop-color:#0F0D0D;stop-opacity:0.2173"/>
					<stop  offset="0.524" style="stop-color:#1E1A1B;stop-opacity:9.755000e-02"/>
					<stop  offset="0.7765" style="stop-color:#231F20;stop-opacity:0"/>
				</linearGradient>
				<polygon style="fill:url(#SVGID_00000154417524543300663910000000795425358590210448_);" points="424.8,-279.7 439.4,-266.6 
					439.4,-317 424.8,-303.7 				"/>
				
					<linearGradient id="SVGID_00000065774577212197724160000016960385249279950486_" gradientUnits="userSpaceOnUse" x1="-8.308" y1="-98.5478" x2="-8.308" y2="-48.1114" gradientTransform="matrix(1.25 0 0 -1.25 442.4634 -389.7686)">
					<stop  offset="0.2336" style="stop-color:#FFFFFF;stop-opacity:0"/>
					<stop  offset="0.9894" style="stop-color:#FFFFFF;stop-opacity:0.4931"/>
					<stop  offset="1" style="stop-color:#FFFFFF;stop-opacity:0.5"/>
				</linearGradient>
				<polygon style="fill:url(#SVGID_00000065774577212197724160000016960385249279950486_);" points="424.8,-279.7 439.4,-266.6 
					439.4,-317 424.8,-303.7 				"/>
			</g>
			
				<g id="path234444" transform="translate(0 314.26300000000003) translate(710.1396874999999 38.192) scale(1.25) translate(-660.02019 50.4)">
				<path class="st2" d="M496.7-317L496.7-317L496.7-317l-9.3,0l0,0v0l-14.6,13.3v37.2h14.6v0l9.3,0v0c14,0,25.3-11.2,25.3-25.1
					C522-305.7,510.6-317,496.7-317z M496.7-279.9L496.7-279.9l-9.3,0v-23.9l9.3,0v0c6.6,0,12,5.4,12,12S503.3-279.9,496.7-279.9z"
					/>
				
					<linearGradient id="SVGID_00000111150296991214109450000014628186257664950427_" gradientUnits="userSpaceOnUse" x1="-8.7239" y1="-78.3674" x2="25.8574" y2="-78.3674" gradientTransform="matrix(1.25 0 0 -1.25 498.3255 -389.7684)">
					<stop  offset="0" style="stop-color:#000000;stop-opacity:0.4"/>
					<stop  offset="0.276" style="stop-color:#0F0D0D;stop-opacity:0.2896"/>
					<stop  offset="0.6748" style="stop-color:#1E1A1B;stop-opacity:0.1301"/>
					<stop  offset="1" style="stop-color:#231F20;stop-opacity:0"/>
				</linearGradient>
				<path style="fill:url(#SVGID_00000111150296991214109450000014628186257664950427_);" d="M496.7-317L496.7-317L496.7-317l-9.3,0
					l0,13.3l9.3,0v0c6.6,0,12,5.4,12,12s-5.4,11.8-12,11.8l0,0l-9.3,0l0,13.3l9.3,0v0c14,0,25.3-11.2,25.3-25.1
					C522-305.7,510.6-317,496.7-317z"/>
				
					<linearGradient id="SVGID_00000111151140788927084000000013270442901395911818_" gradientUnits="userSpaceOnUse" x1="-14.5641" y1="-98.5478" x2="-14.5641" y2="-48.1114" gradientTransform="matrix(1.25 0 0 -1.25 498.3255 -389.7684)">
					<stop  offset="0" style="stop-color:#000000;stop-opacity:0.3"/>
					<stop  offset="0.2141" style="stop-color:#0F0D0D;stop-opacity:0.2173"/>
					<stop  offset="0.524" style="stop-color:#1E1A1B;stop-opacity:9.755000e-02"/>
					<stop  offset="0.7765" style="stop-color:#231F20;stop-opacity:0"/>
				</linearGradient>
				<polygon style="fill:url(#SVGID_00000111151140788927084000000013270442901395911818_);" points="472.8,-266.6 487.4,-266.6 
					487.4,-317 472.8,-303.7 				"/>
				
					<linearGradient id="SVGID_00000042010656085151972300000016279910958836562864_" gradientUnits="userSpaceOnUse" x1="-14.5641" y1="-98.5478" x2="-14.5641" y2="-48.1114" gradientTransform="matrix(1.25 0 0 -1.25 498.3255 -389.7684)">
					<stop  offset="0.1874" style="stop-color:#FFFFFF;stop-opacity:0"/>
					<stop  offset="0.9888" style="stop-color:#FFFFFF;stop-opacity:0.4931"/>
					<stop  offset="1" style="stop-color:#FFFFFF;stop-opacity:0.5"/>
				</linearGradient>
				<polygon style="fill:url(#SVGID_00000042010656085151972300000016279910958836562864_);" points="472.8,-266.6 487.4,-266.6 
					487.4,-317 472.8,-303.7 				"/>
			</g>
		</g>
		<g>
			<defs>
				<polygon id="SVGID_00000085969225304409431630000015010137539397521793_" points="-233,-332.3 -232,-332.3 -233,-331.3 				"/>
			</defs>
			<defs>
				<polygon id="SVGID_00000053547160115995734940000003274525510857864882_" points="-235,-334.3 -236,-334.3 -235,-335.3 				"/>
			</defs>
			<clipPath id="SVGID_00000005227668076779017980000002770100089089547404_">
				<use xlink:href="#SVGID_00000085969225304409431630000015010137539397521793_"  style="overflow:visible;"/>
			</clipPath>
			
				<clipPath id="SVGID_00000146470373417483774790000018234180570809338510_" style="clip-path:url(#SVGID_00000005227668076779017980000002770100089089547404_);">
				<use xlink:href="#SVGID_00000053547160115995734940000003274525510857864882_"  style="overflow:visible;"/>
			</clipPath>
		</g>
	</g>
</g>
</svg>
